<svg id="Layer_1" data-name="Layer 1" xmlns="http://www.w3.org/2000/svg" viewBox="0 0 373.71 60.51"><defs><style>.cls-1{fill:#231f20;}</style></defs><path class="cls-1" d="M139.23,47.69H122.16V21.74l-15.26,26H94.16L78.93,21.74v26H61.86V7H82.14l18.4,29.07L118.92,7h20.31Z" transform="translate(-2.03 -2.42)"/><path class="cls-1" d="M165.38,47.69H148.31V7h17.07Z" transform="translate(-2.03 -2.42)"/><path class="cls-1" d="M230,47.69H213.88a9.65,9.65,0,0,1-1.56-3.92,18.61,18.61,0,0,0-1.19-3.61,6.61,6.61,0,0,0-2.74-2.95A11.7,11.7,0,0,0,202.62,36H191.53V47.69H174.46V7h27.76a69.79,69.79,0,0,1,16.07,1.49q6.11,1.48,8.92,4.68A12.13,12.13,0,0,1,230,21.48a12.65,12.65,0,0,1-2,7.2,12.9,12.9,0,0,1-6.14,4.63c2.71,1.11,4.46,2.45,5.27,4a14.17,14.17,0,0,1,1.48,5.15A21.37,21.37,0,0,0,230,47.69ZM191.53,25.91l9.76,0a44.66,44.66,0,0,0,6.44-.37,10.74,10.74,0,0,0,3.47-1,3,3,0,0,0,1.43-1.42,4.22,4.22,0,0,0,.31-1.6,4.36,4.36,0,0,0-.31-1.62,3.1,3.1,0,0,0-1.43-1.43,11,11,0,0,0-3.47-1,44.91,44.91,0,0,0-6.44-.36h-9.76Z" transform="translate(-2.03 -2.42)"/><path class="cls-1" d="M260.9,48.57q-14.88,0-21-6.19-5.1-5.19-5.1-15V7h17.07V27.38a13.3,13.3,0,0,0,1.45,6.72q2.07,3.56,7.54,3.55t7.58-3.55a13.62,13.62,0,0,0,1.44-6.72V7H287V27.61q0,9.59-5.08,14.77Q275.83,48.58,260.9,48.57Z" transform="translate(-2.03 -2.42)"/><path class="cls-1" d="M293.39,8.1H291V3.82h-2.22V2.42h6.83v1.4h-2.23Z" transform="translate(-2.03 -2.42)"/><path class="cls-1" d="M307.29,8.1H304.9V4.48L302.77,8.1H301l-2.13-3.62V8.1h-2.38V2.42h2.83l2.57,4.05,2.56-4h2.84Z" transform="translate(-2.03 -2.42)"/><path d="M2,28.33a3.09,3.09,0,0,1,.29-1A10.26,10.26,0,0,1,3.48,26l16-16.25c.55-.55,1.15-1,1.7-1.6a2.66,2.66,0,0,1,3.1-.55,2.9,2.9,0,0,1,2,2.63c0,1.12.12,2.23.12,3.35,0,3.13,0,6.27,0,9.41A16,16,0,0,0,26.6,25,2.59,2.59,0,0,0,28.46,27a2.68,2.68,0,0,0,2.88-.36c1.07-.93,2.09-1.9,3.1-2.89q7.81-7.7,15.62-15.41a3.13,3.13,0,0,1,5.39,2.2q0,5.31.14,10.64c0,1.68.08,3.35.14,5a3.13,3.13,0,0,0,2.48,2.6,3.31,3.31,0,0,0,3.21-1.11,2.32,2.32,0,0,1,.58-.55,1.88,1.88,0,0,1,.68-.06c0,.23.08.51,0,.68a5.53,5.53,0,0,1-.8.94q-8.65,8.79-17.31,17.55c-.27.28-.6.5-.87.78-1.51,1.59-4.15.88-5.15-1.28a2,2,0,0,1-.08-.79c0-3.67,0-7.34-.08-11,0-1.62-.09-3.25-.13-4.88a2.46,2.46,0,0,0-1.71-2.31,2.79,2.79,0,0,0-3.09.22c-.87.74-1.7,1.52-2.52,2.32Q24.16,36,17.39,42.72c-1,1-2.08,2-3.14,2.94a3.07,3.07,0,0,1-4-.14,2.79,2.79,0,0,1-.88-2c0-2.33-.08-4.66-.13-7s-.14-4.71-.15-7.07A3.1,3.1,0,0,0,4.29,27L2.34,28.48Z" transform="translate(-2.03 -2.42)"/><path class="cls-1" d="M313.91,34.08h4.68V44.69a14.85,14.85,0,0,1-4.79,2.5,18.14,18.14,0,0,1-5.62.88,15.15,15.15,0,0,1-7.34-1.77,13.1,13.1,0,0,1-5.13-4.88,13.46,13.46,0,0,1-1.86-7,13.46,13.46,0,0,1,1.86-7,13,13,0,0,1,5.15-4.88,15.35,15.35,0,0,1,7.39-1.77,16.21,16.21,0,0,1,6.08,1.1,11.93,11.93,0,0,1,4.6,3.23l-3.12,3a10,10,0,0,0-7.33-3,10.32,10.32,0,0,0-5,1.18,8.68,8.68,0,0,0-3.42,3.3,9.55,9.55,0,0,0-1.23,4.87,9.41,9.41,0,0,0,1.23,4.79,9,9,0,0,0,3.42,3.34,10,10,0,0,0,5,1.22,10.7,10.7,0,0,0,5.47-1.37Z" transform="translate(-2.03 -2.42)"/><path class="cls-1" d="M342.49,47.69l-5.43-7.79c-.23,0-.57,0-1,0h-6v7.75h-4.94V21.09H336a14.7,14.7,0,0,1,6,1.14A8.82,8.82,0,0,1,346,25.5a9.15,9.15,0,0,1,1.36,5.05,9,9,0,0,1-1.46,5.17,8.68,8.68,0,0,1-4.2,3.23l6.12,8.74Zm-1.79-21a7.51,7.51,0,0,0-4.9-1.37H330v10.6h5.77a7.46,7.46,0,0,0,4.9-1.39,4.8,4.8,0,0,0,1.68-3.93A4.74,4.74,0,0,0,340.7,26.64Z" transform="translate(-2.03 -2.42)"/><path class="cls-1" d="M357.9,46.3a12.92,12.92,0,0,1-5.09-4.88,13.54,13.54,0,0,1-1.85-7,13.37,13.37,0,0,1,1.87-7,13,13,0,0,1,5.11-4.88,14.93,14.93,0,0,1,7.27-1.77,15.2,15.2,0,0,1,6,1.14,12.18,12.18,0,0,1,4.56,3.3l-3.19,3A9.32,9.32,0,0,0,365.44,25a9.94,9.94,0,0,0-4.9,1.2,8.57,8.57,0,0,0-3.38,3.32,10.15,10.15,0,0,0,0,9.65,8.59,8.59,0,0,0,3.38,3.33,9.94,9.94,0,0,0,4.9,1.2,9.29,9.29,0,0,0,7.11-3.16l3.19,3a12.08,12.08,0,0,1-4.58,3.31,15.33,15.33,0,0,1-6,1.14A14.93,14.93,0,0,1,357.9,46.3Z" transform="translate(-2.03 -2.42)"/><path class="cls-1" d="M63,55.81h1.62v7H63Z" transform="translate(-2.03 -2.42)"/><path class="cls-1" d="M73.07,55.81v7H71.73l-3.48-4.25v4.25h-1.6v-7H68l3.48,4.25V55.81Z" transform="translate(-2.03 -2.42)"/><path class="cls-1" d="M75.08,55.81h3.18a4.44,4.44,0,0,1,2,.43,3.25,3.25,0,0,1,1.36,1.23,3.7,3.7,0,0,1,0,3.68,3.22,3.22,0,0,1-1.36,1.22,4.44,4.44,0,0,1-2,.44H75.08Zm3.1,5.67a2.35,2.35,0,0,0,1.67-.59,2,2,0,0,0,.63-1.58,2.06,2.06,0,0,0-.63-1.59,2.34,2.34,0,0,0-1.67-.58H76.7v4.34Z" transform="translate(-2.03 -2.42)"/><path class="cls-1" d="M83.68,55.81H85.3v7H83.68Z" transform="translate(-2.03 -2.42)"/><path class="cls-1" d="M91.92,61.31H88.67l-.62,1.5H86.39l3.12-7h1.6l3.13,7h-1.7Zm-.51-1.23L90.3,57.4l-1.11,2.68Z" transform="translate(-2.03 -2.42)"/><path class="cls-1" d="M96.14,55.57a.94.94,0,0,1,.27.7,1.37,1.37,0,0,1,0,.4,4.45,4.45,0,0,1-.21.6l-.58,1.44h-1L95,57.13a.89.89,0,0,1-.39-.33,1,1,0,0,1-.14-.53,1,1,0,0,1,.28-.7,1,1,0,0,1,1.38,0Z" transform="translate(-2.03 -2.42)"/><path class="cls-1" d="M98.73,62.7a3.83,3.83,0,0,1-1.25-.58L98,60.9a3.69,3.69,0,0,0,1.07.53,4.17,4.17,0,0,0,1.24.2,1.94,1.94,0,0,0,1-.21.6.6,0,0,0,.33-.54.52.52,0,0,0-.19-.42,1.57,1.57,0,0,0-.5-.26,8.41,8.41,0,0,0-.83-.22,11.61,11.61,0,0,1-1.31-.38A2.12,2.12,0,0,1,98,59a1.66,1.66,0,0,1-.37-1.12A2,2,0,0,1,98,56.76,2.22,2.22,0,0,1,99,56a4.08,4.08,0,0,1,1.62-.29,5.17,5.17,0,0,1,1.31.16,3.92,3.92,0,0,1,1.12.46l-.5,1.23a3.84,3.84,0,0,0-1.94-.55,1.79,1.79,0,0,0-1,.22.67.67,0,0,0-.33.58.56.56,0,0,0,.38.53,5.41,5.41,0,0,0,1.14.35,11,11,0,0,1,1.31.38,2.23,2.23,0,0,1,.88.6,1.61,1.61,0,0,1,.36,1.11,1.92,1.92,0,0,1-.33,1.09,2.22,2.22,0,0,1-1,.79,4.13,4.13,0,0,1-1.63.29A5.73,5.73,0,0,1,98.73,62.7Z" transform="translate(-2.03 -2.42)"/><path class="cls-1" d="M109.56,57.11V59h3.24v1.3h-3.24v2.55h-1.62v-7h5.29v1.3Z" transform="translate(-2.03 -2.42)"/><path class="cls-1" d="M119,61.31h-3.25l-.62,1.5h-1.66l3.12-7h1.6l3.13,7h-1.7Zm-.51-1.23-1.11-2.68-1.11,2.68Z" transform="translate(-2.03 -2.42)"/><path class="cls-1" d="M123.1,62.7a3.83,3.83,0,0,1-1.25-.58l.55-1.22a3.69,3.69,0,0,0,1.07.53,4.17,4.17,0,0,0,1.24.2,1.94,1.94,0,0,0,1-.21.6.6,0,0,0,.33-.54.52.52,0,0,0-.19-.42,1.57,1.57,0,0,0-.5-.26,8.41,8.41,0,0,0-.83-.22,11.61,11.61,0,0,1-1.31-.38,2.12,2.12,0,0,1-.87-.61,1.66,1.66,0,0,1-.37-1.12,2,2,0,0,1,.33-1.11,2.22,2.22,0,0,1,1-.78,4.08,4.08,0,0,1,1.62-.29,5.17,5.17,0,0,1,1.31.16,3.92,3.92,0,0,1,1.12.46l-.5,1.23a3.84,3.84,0,0,0-1.94-.55,1.79,1.79,0,0,0-1,.22.67.67,0,0,0-.33.58.56.56,0,0,0,.38.53,5.41,5.41,0,0,0,1.14.35,11,11,0,0,1,1.31.38,2.23,2.23,0,0,1,.88.6,1.61,1.61,0,0,1,.36,1.11,1.92,1.92,0,0,1-.33,1.09,2.22,2.22,0,0,1-1,.79,4.13,4.13,0,0,1-1.63.29A5.73,5.73,0,0,1,123.1,62.7Z" transform="translate(-2.03 -2.42)"/><path class="cls-1" d="M130.48,57.13h-2.24V55.81h6.1v1.32H132.1v5.68h-1.62Z" transform="translate(-2.03 -2.42)"/><path class="cls-1" d="M141,61.51v1.3h-5.42v-7h5.29v1.3h-3.68v1.52h3.25v1.26h-3.25v1.62Z" transform="translate(-2.03 -2.42)"/><path class="cls-1" d="M143.32,62.7a3.83,3.83,0,0,1-1.25-.58l.55-1.22a3.69,3.69,0,0,0,1.07.53,4.17,4.17,0,0,0,1.24.2,1.94,1.94,0,0,0,1-.21.6.6,0,0,0,.33-.54.52.52,0,0,0-.19-.42,1.57,1.57,0,0,0-.5-.26,8.41,8.41,0,0,0-.83-.22,11.61,11.61,0,0,1-1.31-.38,2.12,2.12,0,0,1-.87-.61,1.66,1.66,0,0,1-.37-1.12,2,2,0,0,1,.33-1.11,2.22,2.22,0,0,1,1-.78,4.08,4.08,0,0,1,1.62-.29,5.17,5.17,0,0,1,1.31.16,3.92,3.92,0,0,1,1.12.46l-.5,1.23a3.84,3.84,0,0,0-1.94-.55,1.79,1.79,0,0,0-1,.22.67.67,0,0,0-.33.58.56.56,0,0,0,.38.53,5.41,5.41,0,0,0,1.14.35,11,11,0,0,1,1.31.38,2.23,2.23,0,0,1,.88.6,1.61,1.61,0,0,1,.36,1.11,1.92,1.92,0,0,1-.33,1.09,2.22,2.22,0,0,1-1,.79,4.13,4.13,0,0,1-1.63.29A5.73,5.73,0,0,1,143.32,62.7Z" transform="translate(-2.03 -2.42)"/><path class="cls-1" d="M150.7,57.13h-2.24V55.81h6.1v1.32h-2.24v5.68H150.7Z" transform="translate(-2.03 -2.42)"/><path class="cls-1" d="M155.11,59.37h2.83v1.25h-2.83Z" transform="translate(-2.03 -2.42)"/><path class="cls-1" d="M164.4,59.2h1.48V62a4.09,4.09,0,0,1-1.32.66,5.22,5.22,0,0,1-1.51.23,4.11,4.11,0,0,1-2-.47,3.45,3.45,0,0,1-1.36-1.29,3.73,3.73,0,0,1,0-3.73,3.47,3.47,0,0,1,1.37-1.29,4.19,4.19,0,0,1,2-.46,4.25,4.25,0,0,1,1.67.31,3.27,3.27,0,0,1,1.26.9l-1,1a2.39,2.39,0,0,0-1.81-.79,2.46,2.46,0,0,0-1.19.28,2.12,2.12,0,0,0-.81.79,2.49,2.49,0,0,0,0,2.33,2.12,2.12,0,0,0,.81.79,2.36,2.36,0,0,0,1.17.29,2.61,2.61,0,0,0,1.26-.3Z" transform="translate(-2.03 -2.42)"/><path class="cls-1" d="M172.19,62.81l-1.35-2h-1.49v2h-1.62v-7h3a3.87,3.87,0,0,1,1.62.31,2.35,2.35,0,0,1,1.05.88,2.4,2.4,0,0,1,.37,1.35,2.34,2.34,0,0,1-.37,1.34,2.38,2.38,0,0,1-1.07.87l1.57,2.25Zm-.41-5.37a1.69,1.69,0,0,0-1.11-.31h-1.32v2.44h1.32a1.69,1.69,0,0,0,1.11-.32,1.08,1.08,0,0,0,.38-.9A1.1,1.1,0,0,0,171.78,57.44Z" transform="translate(-2.03 -2.42)"/><path class="cls-1" d="M176.86,62.46A3.52,3.52,0,0,1,175,59.31a3.55,3.55,0,0,1,.5-1.86,3.47,3.47,0,0,1,1.37-1.29,4.32,4.32,0,0,1,3.92,0,3.49,3.49,0,0,1,1.87,3.15,3.42,3.42,0,0,1-.5,1.85,3.5,3.5,0,0,1-1.37,1.3,4.32,4.32,0,0,1-3.92,0Zm3.08-1.2a2,2,0,0,0,.79-.79,2.54,2.54,0,0,0,0-2.32,2,2,0,0,0-.79-.8,2.19,2.19,0,0,0-1.12-.28,2.24,2.24,0,0,0-1.12.28,2.07,2.07,0,0,0-.78.8,2.46,2.46,0,0,0,0,2.32,2,2,0,0,0,.78.79,2.25,2.25,0,0,0,1.12.29A2.2,2.2,0,0,0,179.94,61.26Z" transform="translate(-2.03 -2.42)"/><path class="cls-1" d="M194.57,55.81l-2.29,7h-1.74L189,58.07l-1.59,4.74h-1.73l-2.3-7h1.68l1.58,4.92,1.65-4.92h1.5l1.6,5,1.63-5Z" transform="translate(-2.03 -2.42)"/><path class="cls-1" d="M195.82,55.81h1.62v7h-1.62Z" transform="translate(-2.03 -2.42)"/><path class="cls-1" d="M205.87,55.81v7h-1.33l-3.49-4.25v4.25h-1.6v-7h1.34l3.48,4.25V55.81Z" transform="translate(-2.03 -2.42)"/><path class="cls-1" d="M212.61,59.2h1.48V62a4.09,4.09,0,0,1-1.32.66,5.22,5.22,0,0,1-1.51.23,4.11,4.11,0,0,1-2-.47,3.45,3.45,0,0,1-1.36-1.29,3.73,3.73,0,0,1,0-3.73,3.47,3.47,0,0,1,1.37-1.29,4.19,4.19,0,0,1,2-.46A4.25,4.25,0,0,1,213,56a3.27,3.27,0,0,1,1.26.9l-1,1a2.39,2.39,0,0,0-1.81-.79,2.46,2.46,0,0,0-1.19.28,2.12,2.12,0,0,0-.81.79,2.49,2.49,0,0,0,0,2.33,2.12,2.12,0,0,0,.81.79,2.36,2.36,0,0,0,1.17.29,2.61,2.61,0,0,0,1.26-.3Z" transform="translate(-2.03 -2.42)"/><path class="cls-1" d="M223.85,59.2h1.48V62a4.09,4.09,0,0,1-1.32.66,5.22,5.22,0,0,1-1.51.23,4.11,4.11,0,0,1-2-.47,3.45,3.45,0,0,1-1.36-1.29,3.73,3.73,0,0,1,0-3.73,3.47,3.47,0,0,1,1.37-1.29,4.19,4.19,0,0,1,2-.46,4.25,4.25,0,0,1,1.67.31,3.27,3.27,0,0,1,1.26.9l-1,1a2.39,2.39,0,0,0-1.81-.79,2.46,2.46,0,0,0-1.19.28,2.12,2.12,0,0,0-.81.79,2.49,2.49,0,0,0,0,2.33,2.12,2.12,0,0,0,.81.79,2.36,2.36,0,0,0,1.17.29,2.61,2.61,0,0,0,1.26-.3Z" transform="translate(-2.03 -2.42)"/><path class="cls-1" d="M231.64,62.81l-1.35-2H228.8v2h-1.62v-7h3a3.87,3.87,0,0,1,1.62.31,2.35,2.35,0,0,1,1,.88,2.4,2.4,0,0,1,.37,1.35,2.34,2.34,0,0,1-.37,1.34,2.38,2.38,0,0,1-1.07.87l1.57,2.25Zm-.41-5.37a1.69,1.69,0,0,0-1.11-.31H228.8v2.44h1.32a1.69,1.69,0,0,0,1.11-.32,1.08,1.08,0,0,0,.38-.9A1.1,1.1,0,0,0,231.23,57.44Z" transform="translate(-2.03 -2.42)"/><path class="cls-1" d="M236.3,62.46a3.45,3.45,0,0,1-1.36-1.29,3.73,3.73,0,0,1,0-3.73,3.45,3.45,0,0,1,1.36-1.29,4,4,0,0,1,1.94-.46,4.15,4.15,0,0,1,1.65.32,3.22,3.22,0,0,1,1.23.92l-1,1a2.22,2.22,0,0,0-1.76-.82,2.34,2.34,0,0,0-1.16.28,2,2,0,0,0-.79.8,2.46,2.46,0,0,0,0,2.32,2,2,0,0,0,.79.79,2.35,2.35,0,0,0,1.16.29,2.23,2.23,0,0,0,1.76-.83l1,1a3.11,3.11,0,0,1-1.24.93,4.15,4.15,0,0,1-1.65.32A4,4,0,0,1,236.3,62.46Z" transform="translate(-2.03 -2.42)"/><path class="cls-1" d="M251.82,59.8a1.74,1.74,0,0,1,.34,1.1,1.6,1.6,0,0,1-.71,1.41,3.66,3.66,0,0,1-2.09.5h-3.62v-7h3.42a3.33,3.33,0,0,1,2,.49,1.54,1.54,0,0,1,.68,1.33,1.74,1.74,0,0,1-.24.91,1.62,1.62,0,0,1-.69.63A1.87,1.87,0,0,1,251.82,59.8ZM247.35,57v1.65H249a1.61,1.61,0,0,0,.91-.21.77.77,0,0,0,0-1.24A1.71,1.71,0,0,0,249,57Zm2.86,4.35a.71.71,0,0,0,.32-.65q0-.87-1.29-.87h-1.89v1.73h1.89A1.81,1.81,0,0,0,250.21,61.38Z" transform="translate(-2.03 -2.42)"/><path class="cls-1" d="M258.2,62.81l-1.35-2h-1.49v2h-1.62v-7h3a3.87,3.87,0,0,1,1.62.31,2.35,2.35,0,0,1,1.05.88,2.4,2.4,0,0,1,.37,1.35,2.34,2.34,0,0,1-.37,1.34,2.38,2.38,0,0,1-1.07.87l1.57,2.25Zm-.41-5.37a1.69,1.69,0,0,0-1.11-.31h-1.32v2.44h1.32a1.69,1.69,0,0,0,1.11-.32,1.08,1.08,0,0,0,.38-.9A1.1,1.1,0,0,0,257.79,57.44Z" transform="translate(-2.03 -2.42)"/><path class="cls-1" d="M266.05,61.31H262.8l-.62,1.5h-1.66l3.12-7h1.6l3.13,7h-1.7Zm-.51-1.23-1.11-2.68-1.11,2.68Z" transform="translate(-2.03 -2.42)"/><path class="cls-1" d="M275.87,55.81v7h-1.33l-3.49-4.25v4.25h-1.6v-7h1.34l3.48,4.25V55.81Z" transform="translate(-2.03 -2.42)"/><path class="cls-1" d="M277.88,55.81h3.18a4.48,4.48,0,0,1,2,.43,3.25,3.25,0,0,1,1.36,1.23,3.77,3.77,0,0,1,0,3.68,3.22,3.22,0,0,1-1.36,1.22,4.48,4.48,0,0,1-2,.44h-3.18Zm3.1,5.67a2.37,2.37,0,0,0,1.68-.59,2,2,0,0,0,.62-1.58,2.06,2.06,0,0,0-.62-1.59,2.37,2.37,0,0,0-1.68-.58H279.5v4.34Z" transform="translate(-2.03 -2.42)"/></svg>